<svg width="860" height="860" viewBox="0 0 860 860" fill="none" xmlns="http://www.w3.org/2000/svg">
  <rect width="860" height="860" rx="72" fill="#FAF7F0"/>
  <rect x="46" y="46" width="768" height="768" rx="40" fill="#FFFDF8" stroke="#D3CBBB" stroke-width="2"/>
  <path d="M142 214H718" stroke="#D7D1C5"/>
  <path d="M142 430H718" stroke="#D7D1C5"/>
  <path d="M142 646H718" stroke="#D7D1C5"/>
  <path d="M286 142V718" stroke="#D7D1C5"/>
  <path d="M430 142V718" stroke="#D7D1C5"/>
  <path d="M574 142V718" stroke="#D7D1C5"/>
  <rect x="166" y="166" width="240" height="120" rx="28" fill="#1F6F67"/>
  <rect x="454" y="166" width="240" height="120" rx="28" fill="#E5D5B9"/>
  <rect x="166" y="358" width="528" height="120" rx="28" fill="#DDE8E5"/>
  <rect x="166" y="550" width="240" height="120" rx="28" fill="#EDE5D7"/>
  <rect x="454" y="550" width="240" height="120" rx="28" fill="#30556A"/>
  <circle cx="350" cy="442" r="44" fill="#FAF7F0"/>
  <path d="M334 442H366" stroke="#1B221F" stroke-width="4" stroke-linecap="round"/>
  <path d="M350 426V458" stroke="#1B221F" stroke-width="4" stroke-linecap="round"/>
</svg>

